<svg width="320" height="96" viewBox="0 0 320 96" fill="none" xmlns="http://www.w3.org/2000/svg">
  <rect x="2" y="2" width="316" height="92" rx="20" fill="#F2F6FB"/>
  <rect x="2" y="2" width="316" height="92" rx="20" stroke="#D9E2EC" stroke-width="2"/>
  <rect x="30" y="32" width="11" height="11" rx="3" fill="#24314A"/>
  <rect x="45" y="32" width="11" height="11" rx="3" fill="#5F708D"/>
  <rect x="60" y="32" width="11" height="11" rx="3" fill="#93A2BC"/>
  <rect x="30" y="47" width="11" height="11" rx="3" fill="#5F708D"/>
  <rect x="45" y="47" width="11" height="11" rx="3" fill="#24314A"/>
  <rect x="60" y="47" width="11" height="11" rx="3" fill="#5F708D"/>
  <rect x="30" y="62" width="11" height="11" rx="3" fill="#93A2BC"/>
  <rect x="45" y="62" width="11" height="11" rx="3" fill="#5F708D"/>
  <rect x="60" y="62" width="11" height="11" rx="3" fill="#24314A"/>
  <text x="92" y="44" fill="#24314A" font-family="Arial, sans-serif" font-size="12" font-weight="700" letter-spacing="1.8">LUMEN</text>
  <text x="92" y="63" fill="#24314A" font-family="Arial, sans-serif" font-size="16" font-weight="700" letter-spacing="0.8">GRID</text>
</svg>
