<svg xmlns="http://www.w3.org/2000/svg" width="256" height="256" fill="none" viewBox="0 0 256 256"><path fill="#2c2c2c" d="M154.841 108.749c-2.107-1.771-4.3-3.586-6.378-5.658a64.5 64.5 0 0 1-6.076-7.331 43 43 0 0 0-7.439-8.345 21.6 21.6 0 0 0-10.548-4.973 15 15 0 0 0-1.175-.172l-.286-.028-.244-.029a20 20 0 0 0-1.978-.1c-11.981.014-21.684 9.703-21.698 21.649a26.26 26.26 0 0 0 6.32 16.276c2.007 2.087 3.626 5.359 3.626 7.645 0 2.287-1.677 5.759-3.712 7.96a39.5 39.5 0 0 0-4.471 7.473l-.086.229a17 17 0 0 0-.616 1.715l-.115.357c-.13.457-.301 1.072-.444 1.786l-.043.172c-.13.6-.23 1.272-.301 2l-.029.458a21 21 0 0 0-.086 1.829c0 11.932 9.703 21.62 21.669 21.649a21.74 21.74 0 0 0 14.203-5.273 40.4 40.4 0 0 0 6.98-7.759 51.3 51.3 0 0 1 6.076-7.102c2.05-1.872 4.142-3.516 6.163-5.116 6.406-5.059 13.013-10.289 13.013-19.992 0-9.002-6.263-14.218-12.311-19.277zm-6.607 31.867c-2.035 1.615-4.357 3.444-6.65 5.544a59.4 59.4 0 0 0-7.252 8.374 33.5 33.5 0 0 1-5.302 6.059l-.244.2a12.25 12.25 0 0 1-8.055 3.029c-6.75 0-12.21-5.473-12.21-12.203 0-.357.014-.729.057-1.2v-.286c.043-.329.086-.615.144-.858l.043-.185c.071-.315.143-.601.258-1.015l.1-.314c.072-.243.172-.5.344-.915l.043-.114a30.6 30.6 0 0 1 3.468-5.659 22.63 22.63 0 0 0 5.46-13.404 21.8 21.8 0 0 0-5.403-13.161 17.47 17.47 0 0 1-4.528-10.76c0-6.73 5.474-12.19 12.239-12.204.315 0 .673.015 1.089.058.115.014.315.028.473.057.158.014.315.043.473.071h.029a12.1 12.1 0 0 1 6.005 2.858l.258.215a36.3 36.3 0 0 1 5.747 6.616 73.4 73.4 0 0 0 6.979 8.359c2.365 2.372 4.83 4.416 6.994 6.216 5.862 4.888 8.914 7.645 8.914 12.032 0 4.93-3.052 7.56-9.43 12.59zM82.198 213.871l-3.727-1.569-1.66-21.983 3.45 1.452 1.37 18.304 14.044-11.819 3.425 1.441zM119.411 203.43l-3.661 19.275-3.007-.571-10.313-17.451-2.84 14.952-3.302-.627 3.661-19.275 3.543.673 9.9 16.705 2.718-14.308zM142.524 206.386l-8.852.156.291 16.556-3.497.061-.291-16.556-8.852.155-.053-3.06 21.201-.372zM150.442 213.97l1.626 7.42-3.416.749-4.201-19.164 11.931-2.615c4.191-.919 7.512.451 8.36 4.321.65 2.963-.67 5.238-3.261 6.562l6.655 6.625-3.896.854-6.298-6.396zm-.644-2.936 8.328-1.825c2.456-.539 3.663-1.922 3.253-3.791-.415-1.895-2.085-2.62-4.54-2.081l-8.328 1.825zM169.354 212.603l1.383-3.131c3.335 2.129 6.985 1.62 9.693.447 3.235-1.401 5.099-3.489 4.404-5.094-.825-1.906-2.395-1.404-7.921.275-4.816 1.461-8.402 2.121-9.922-1.39-1.412-3.259.765-7.031 5.78-9.204 3.987-1.727 8.249-1.786 10.799-.092l-1.47 2.93c-2.14-1.366-5.115-1.358-8.249 0-3.56 1.542-4.532 3.422-3.968 4.726.619 1.429 1.925 1.281 6.878-.21 5.737-1.74 9.383-2.605 11.044 1.231s-1.355 7.526-6.245 9.644c-4.438 1.922-9.342 1.873-12.206-.132M71.576 73.032l-1.917 2.07-17.086-5.584 11.98 11.096-2.304 2.488L47.96 69.867l3.65-3.94 15.94 5.224-6.43-15.493 3.577-3.86 14.289 13.234-2.305 2.487-11.98-11.096zM81.115 41.475l3.394-1.763 17.763 12.722-3.274 1.7-4.441-3.195-10.039 5.212.06 5.471-3.298 1.713zM84.4 43.62l.091 9.122 7.319-3.8zM105.347 51.682l-3.163-19.218 9.742-1.604c6.611-1.088 11.457 1.963 12.422 7.825.965 5.861-2.647 10.305-9.258 11.393zm2.888-3.5 6.37-1.048c4.577-.754 6.902-3.83 6.237-7.872-.67-4.068-3.854-6.21-8.458-5.453l-6.343 1.044zM132.648 29.232l18.635 2.666-.43 3.007-15.252-2.182-.692 4.834 13.722 1.963-.431 3.007-13.721-1.963-.776 5.424 15.252 2.182-.43 3.008-18.636-2.666zM161.065 55.806l10.267-16.55 10.626 6.593c3.55 2.202 4.597 4.99 2.852 7.802-1.272 2.052-3.244 2.297-4.682 2.043 1.385 1.626 1.766 3.841.508 5.87-1.802 2.904-5.119 3.208-8.53 1.092zm8.855-7.945 7.514 4.662c1.89 1.172 3.501 1.15 4.401-.302.901-1.453.192-2.882-1.698-4.055l-7.514-4.661zm-1.544 2.49-2.932 4.725 8.045 4.99c1.867 1.159 3.597.891 4.469-.515.858-1.383.329-3.052-1.538-4.21zM195.345 68.642l11.049.13 2.767 3.2-14.77-.246-6.403 5.536-2.27-2.627 6.402-5.535 1.873-14.672 2.803 3.242z"/><path fill="#000" d="M251.17 128C251.17 59.975 196.025 4.83 128 4.83S4.83 59.975 4.83 128 59.975 251.17 128 251.17V256C57.308 256 0 198.692 0 128S57.308 0 128 0s128 57.308 128 128-57.308 128-128 128v-4.83c68.025 0 123.17-55.145 123.17-123.17"/></svg>